<?xml version="1.0" encoding="UTF-8"?>
<svg width="281px" height="89px" viewBox="0 0 281 89" version="1.1" xmlns="http://www.w3.org/2000/svg" xmlns:xlink="http://www.w3.org/1999/xlink">
    <!-- Generator: Sketch 63.1 (92452) - https://sketch.com -->
    <title>logo_chimps</title>
    <desc>Created with Sketch.</desc>
    <g id="Symbols" stroke="none" stroke-width="1" fill="none" fill-rule="evenodd">
        <g id="logo/chimps">
            <g id="logo_chimps">
                <g id="logo/symbol/chimps">
                    <g id="logo_symbol_chimps">
                        <polygon id="Fill-1" fill="#56BF98" points="0 89 89.029703 89 89.029703 0 0 0"></polygon>
                        <path d="M44.4718193,13.6421703 C30.6676098,13.6421703 19.4238586,24.8784203 19.4238586,38.6734203 C19.4238586,45.8073266 22.4296139,52.2598266 27.230473,56.8210766 C27.8845031,54.9576391 28.8307594,53.2332641 30.0135798,51.7035766 C26.8825847,48.2548266 24.9900721,43.6796703 24.9900721,38.6734203 C24.9900721,27.9377953 33.7290273,19.2046703 44.4718193,19.2046703 C55.1311181,19.2046703 63.9535665,27.1743422 63.9535665,38.4231078 C63.8700733,42.3585766 61.253953,45.6960766 57.6637453,46.8502953 C57.0514618,47.0449828 56.4252628,47.1840453 55.7573172,47.2396703 C55.4790065,47.2674828 55.2006958,47.2813891 54.9084696,47.2813891 L44.360495,47.2813891 C41.8417834,47.2813891 39.4622272,47.8793578 37.3609816,48.9640453 C37.3609816,48.9640453 36.7486981,49.2977953 35.8720195,49.9374828 C35.8163573,49.9652953 35.7606952,49.9931078 35.7189486,50.0348266 C35.5519622,50.1460766 35.3849758,50.2712328 35.2179894,50.4102953 C34.8979321,50.6467016 34.5500438,50.9248266 34.1882399,51.2168578 C33.9655913,51.3976391 33.7568583,51.5923266 33.5481253,51.8009203 L33.4368011,51.9121703 C31.1685691,54.1788891 29.6100293,57.1409203 29.1090701,60.4506078 C29.0673235,60.7009203 29.0394924,60.9512328 29.0116613,61.2154516 C28.9838303,61.4518578 28.9699147,61.6743578 28.9559992,61.9107641 C28.9420837,62.2027953 28.9281681,62.4948266 28.9281681,62.7868578 C28.9281681,63.0232641 28.9281681,63.2457641 28.9420837,63.4821703 C28.9559992,63.7324828 28.9699147,63.9967016 28.9977458,64.2470141 C29.0255769,64.4973266 29.0534079,64.7337328 29.081239,64.9701391 C29.1647322,65.4568578 29.2482254,65.9296703 29.3595497,66.4024828 C31.0294137,73.1192016 37.1244175,78.1115453 44.360495,78.1115453 C48.062027,78.1115453 51.4435017,76.8043578 54.1013686,74.6488891 C54.4770881,74.3290453 54.8388919,74.0092016 55.1867803,73.6615453 C55.3815977,73.4668578 55.5764152,73.2582641 55.7712327,73.0496703 C56.0773744,72.7020141 56.3696006,72.3543578 56.6479113,71.9927953 C56.6479113,71.9788891 56.6618269,71.9788891 56.6618269,71.9788891 C58.5543394,69.4062328 59.6954132,66.2217016 59.6954132,62.7868578 C59.6954132,60.1585766 59.0274676,57.6832641 57.8585628,55.5138891 C57.6219987,55.5417016 57.3993501,55.5556078 57.1627861,55.5556078 L51.4017551,55.5556078 C51.6522347,55.8615453 51.8887988,56.1952953 52.1253629,56.5707641 C53.0855347,58.0309203 53.9343822,59.8804516 54.1431152,61.7577953 C54.1987774,62.0637328 54.2126929,62.3835766 54.2126929,62.6895141 C54.2126929,68.1268578 49.7875532,72.5490453 44.360495,72.5490453 C38.9195213,72.5490453 34.4943816,68.1268578 34.4943816,62.6895141 C34.4943816,62.3418578 34.5082972,61.9942016 34.5500438,61.6465453 C34.7587768,59.7274828 35.5102156,57.9613891 36.693036,56.5290453 C36.9574311,56.1813891 37.2635728,55.8615453 37.5836301,55.5556078 C39.3369874,53.8729516 41.7304592,52.8438891 44.360495,52.8438891 L55.1728647,52.8438891 C55.3120201,52.8438891 55.465091,52.8299828 55.6042463,52.8299828 C55.7434016,52.8160766 55.8686414,52.8160766 56.0077968,52.8021703 C56.09129,52.8021703 56.1747832,52.7882641 56.2582764,52.7882641 C56.4252628,52.7743578 56.5922492,52.7465453 56.7731511,52.7326391 C57.2601948,52.6631078 57.7333229,52.5796703 58.2064511,52.4684203 C58.4708462,52.4127953 58.7352414,52.3432641 58.9996365,52.2598266 C59.0831297,52.2459203 59.1805385,52.2181078 59.2640317,52.1902953 C65.1503024,50.3407641 69.4641179,44.8617016 69.51978,38.3813891 L69.51978,38.2423266 L69.5058645,38.2423266 C69.5058645,24.0454359 58.1368734,13.6421703 44.4718193,13.6421703" id="Fill-13" fill="#FFFFFF"></path>
                        <path d="M10.3787617,38.2421875 C10.3787617,42.708875 13.6252557,46.4107188 17.8861921,47.1407969 C16.9288034,44.4916563 16.3791398,41.6478281 16.3791398,38.6732813 C16.3791398,35.35525 17.0443023,32.1929688 18.2243396,29.2907344 C13.7978083,29.8789688 10.3787617,33.6572969 10.3787617,38.2421875" id="Fill-14" fill="#FFFFFF"></path>
                        <path d="M71.0756758,29.2914297 C72.0330646,31.9419609 72.5813366,34.7843984 72.5813366,37.7589453 C72.5813366,41.0769766 71.7895427,44.3268672 70.2824904,47.1651328 C75.094482,46.8174766 78.5831063,42.7749297 78.5831063,38.1900391 C78.5831063,33.7233516 75.3380038,30.0228984 71.0756758,29.2914297" id="Fill-15" fill="#FFFFFF"></path>
                    </g>
                </g>
                <g id="Group" transform="translate(119.000000, 24.000000)">
                    <path d="M13.3590683,33.6572594 C6.2464297,33.6572594 0.565221782,27.8041188 0.565221782,20.7383531 C0.565221782,13.7143063 6.29233564,7.99188438 13.3159446,7.99188438 C18.9554198,7.99188438 23.6378257,11.4601031 25.4170287,16.7917594 L18.9095139,16.7917594 C17.6519693,14.5375563 16.007702,13.2818219 13.3159446,13.2818219 C9.02165248,13.2818219 6.33545941,16.7055406 6.33545941,20.8245719 C6.33545941,24.9867125 9.28317723,28.3673219 13.5774693,28.3673219 C15.9186723,28.3673219 17.6992663,26.9794781 18.9095139,25.0298219 L25.4170287,25.0298219 C23.5070634,30.3197594 19.0402762,33.6572594 13.3590683,33.6572594" id="Fill-2" fill="#292828"></path>
                    <path d="M43.2512084,32.8771188 L43.2512084,20.564525 C43.2512084,17.0963063 42.6864262,13.2818219 38.3072777,13.2818219 C34.0129856,13.2818219 33.4523767,17.3132438 33.4523767,20.6507438 L33.4523767,32.8771188 L27.6821391,32.8771188 L27.6821391,0.7954 L33.4523767,0.7954 L33.4523767,10.507525 C35.2274064,8.816525 37.2236193,7.99188438 39.6941936,7.99188438 C42.4276837,7.99188438 45.461649,9.50905625 47.1100896,11.6770406 C48.6708916,13.7143063 49.020055,16.4023844 49.020055,18.9166344 L49.020055,32.8771188 L43.2512084,32.8771188 Z" id="Fill-4" fill="#292828"></path>
                    <path d="M52.6311832,32.8765625 L58.3986386,32.8765625 L58.3986386,8.81596875 L52.6311832,8.81596875 L52.6311832,32.8765625 Z M52.6311832,6.08478125 L58.3986386,6.08478125 L58.3986386,0.796234375 L52.6311832,0.796234375 L52.6311832,6.08478125 Z" id="Fill-6" fill="#292828"></path>
                    <path d="M91.7070153,32.8771188 L91.7070153,19.5243375 C91.7070153,16.4468844 90.8834906,13.2818219 87.1553718,13.2818219 C85.5486639,13.2818219 83.9878619,14.1481813 83.1643371,15.536025 C82.3380302,16.8793688 82.2962975,18.9166344 82.2962975,20.4351969 L82.2962975,32.8771188 L76.5288421,32.8771188 L76.5288421,19.5243375 C76.5288421,16.3606656 75.357545,13.2818219 71.7128916,13.2818219 C67.3768668,13.2818219 67.1195153,17.6164 67.1195153,20.8676813 L67.1195153,32.8771188 L61.3492777,32.8771188 L61.3492777,8.816525 L66.6423718,8.816525 L66.6423718,10.8537906 L66.7272282,10.8537906 C68.0265054,8.72891563 70.6751391,7.99188438 73.0163421,7.99188438 C75.8764213,7.99188438 78.3942926,9.33661875 79.9550946,11.7632594 C81.8622777,9.0334625 84.5067381,7.99188438 87.7159807,7.99188438 C90.795852,7.99188438 93.7908668,9.1614 95.6549262,11.72015 C97.0849658,13.7143063 97.4730797,16.4468844 97.4730797,18.8304156 L97.4730797,32.8771188 L91.7070153,32.8771188 Z" id="Fill-8" fill="#292828"></path>
                    <path d="M113.327322,13.2814047 C109.159619,13.2814047 106.211901,16.7913422 106.211901,20.8255453 C106.211901,23.8153891 107.646114,26.4172484 110.421337,27.6757641 C111.286595,28.1082484 112.239491,28.3669047 113.239684,28.3669047 C117.314184,28.3669047 120.261901,24.7262484 120.261901,20.8255453 C120.261901,16.9665609 117.401822,13.2814047 113.327322,13.2814047 M113.976961,33.6568422 C110.766327,33.6568422 108.813238,32.7459828 106.561065,30.5779984 L106.561065,40.8964359 L100.790827,40.8964359 L100.790827,8.81610781 L106.083921,8.81610781 L106.083921,11.6321234 L106.168778,11.6321234 C108.164991,9.11926406 110.809451,7.99146719 113.976961,7.99146719 C121.046476,7.99146719 126.032139,13.8891078 126.032139,20.7393266 C126.032139,27.5450453 121.046476,33.6568422 113.976961,33.6568422" id="Fill-9" fill="#292828"></path>
                    <polygon id="Fill-10" fill="#56BF98" points="127.250594 32.8765625 133.01805 32.8765625 133.01805 27.1096406 127.250594 27.1096406"></polygon>
                    <path d="M135.708416,6.08478125 L141.478653,6.08478125 L141.478653,0.796234375 L135.708416,0.796234375 L135.708416,6.08478125 Z M133.279574,40.8962969 L133.279574,35.2614844 C135.666683,35.0445469 135.708416,33.91675 135.708416,31.7070469 L135.708416,8.81596875 L141.478653,8.81596875 L141.478653,31.8377656 C141.478653,36.8662656 138.572668,40.8531875 133.279574,40.8962969 L133.279574,40.8962969 Z" id="Fill-11" fill="#56BF98"></path>
                    <path d="M152.671774,33.6572594 C149.980016,33.6572594 147.163061,32.6170719 145.471497,30.4921969 C144.213952,28.8874156 143.821665,27.284025 143.64917,25.2912594 L149.55017,25.2912594 C149.938284,27.0239781 150.718685,28.3673219 152.713506,28.3673219 C154.101813,28.3673219 155.316234,27.4147438 155.316234,25.9406813 C155.316234,25.5068063 155.227204,25.0743219 154.969853,24.6835563 C154.189452,23.6002594 151.110972,22.7756188 149.89516,22.3417438 C146.685917,21.2153375 144.5186,19.0028531 144.5186,15.4484156 C144.5186,11.0693375 148.377482,7.99188438 152.584135,7.99188438 C156.79218,7.99188438 160.260165,11.1569469 160.43266,15.3621969 L154.797358,15.3621969 C154.535833,14.1036813 153.798556,13.2818219 152.497888,13.2818219 C151.283467,13.2818219 150.284665,14.1481813 150.284665,15.3621969 C150.284665,16.6193219 151.283467,16.9669781 152.279487,17.3563531 C152.975031,17.6164 153.667794,17.8333375 154.363338,18.050275 C158.091457,19.2211813 161.082299,20.7814625 161.082299,25.2467594 C161.082299,30.0152125 157.441818,33.6572594 152.671774,33.6572594" id="Fill-12" fill="#56BF98"></path>
                </g>
            </g>
        </g>
    </g>
</svg>